<svg width="250" height="250" xmlns="http://www.w3.org/2000/svg">

 <g>
  <title>background</title>
  <rect fill="none" id="canvas_background" height="252" width="252" y="-1" x="-1"/>
 </g>
 <g>
  <title>Layer 1</title>
  <g id="svgg">
   <path fill-rule="evenodd" fill="#000000" d="m183.2,17.648c-12.384,3.086 -69.664,3.458 -114.973,0.746c-15.603,-0.934 -21.812,-1.044 -23,-0.409c-1.188,0.636 -2.097,0.62 -3.369,-0.061c-2.295,-1.228 -12.204,-0.405 -14.684,1.22c-8.474,5.552 -8.998,23.576 -0.93,31.978l3.147,3.278l-0.465,14c-0.256,7.7 -0.848,18.86 -1.315,24.8c-1.104,14.041 -1.38,45.175 -0.571,64.4c1.384,32.879 2.397,34.534 20.96,34.229c14.575,-0.24 51.538,-2.969 85.2,-6.29c22.502,-2.22 41.455,-1.83 60.232,1.239c26.434,4.321 32.361,-0.317 26.553,-20.778c-2.496,-8.794 -2.323,-82.095 0.22,-92.8c5.789,-24.372 0.01,-45.375 -13.65,-49.615c-1.845,-0.573 -5.218,-2.285 -7.495,-3.805c-4.934,-3.293 -9.003,-3.84 -15.86,-2.132m-35.6,24.124c3.878,0.961 4.219,4.743 0.4,4.434c-31.862,-2.571 -50.278,-0.688 -55.514,5.678c-1.722,2.094 -0.865,2.199 5.97,0.733c11.754,-2.523 67.157,-0.924 70.104,2.023c2.487,2.487 -0.02,3.591 -6.889,3.034c-39.294,-3.188 -69.406,-2.474 -63.949,1.516c3.895,2.849 -2.381,4.665 -6.803,1.97l-2.681,-1.635l-5.04,2.358c-2.772,1.298 -5.796,3.115 -6.719,4.038c-1.984,1.984 -2.356,6.11 -0.487,5.393c13.003,-4.99 22.587,-6.343 44.54,-6.286c29.125,0.074 54.984,4.263 54.117,8.765c-0.398,2.069 -2.656,2.152 -8.967,0.327c-17.2,-4.972 -58.625,-6.454 -74.077,-2.65c-11.6,2.855 -11.914,3.34 -3.196,4.943c2.855,0.525 6.024,1.109 7.043,1.299c1.379,0.257 1.788,0.797 1.6,2.116c-0.353,2.484 -7.579,2.186 -16.429,-0.675c-8.033,-2.598 -10.518,-1.749 -13.721,4.689c-2.901,5.829 -1.16,7.527 5.363,5.23c21.955,-7.732 58.902,-8.075 100.895,-0.934c12.476,2.121 12.84,2.229 12.84,3.811c0,2.555 -2.077,2.605 -15.2,0.364c-38,-6.488 -73.212,-6.61 -94.669,-0.327c-5.856,1.715 -4.894,2.658 6.667,6.525c7.442,2.489 9.208,3.914 7.036,5.675c-1.996,1.62 -15.834,-3.289 -22.326,-7.92c-2.738,-1.953 -11.876,6.83 -13.056,12.55c-0.576,2.793 0.062,3.754 5.148,7.746c6.44,5.056 6.857,5.134 10.396,1.937c11.357,-10.261 29.554,-13.527 71.604,-12.854c26.664,0.428 40.4,2.167 40.4,5.117c0,2.197 -1.197,2.31 -10.8,1.018c-30.192,-4.062 -77.013,-1.291 -90.439,5.352c-10.996,5.441 -11.08,7.444 -0.408,9.733c4.486,0.962 5.459,1.833 4.005,3.586c-1.147,1.382 -4.585,0.953 -10.71,-1.336c-4.57,-1.708 -5.15,-1.506 -3.39,1.181c2.508,3.828 7.86,5.033 13.595,3.063c19.226,-6.606 66.573,-9.65 81.594,-5.246c4.504,1.321 1.041,3.889 -5.047,3.742c-48.51,-1.173 -71.459,0.914 -73.658,6.698c-0.544,1.43 -1.317,1.847 -3.425,1.847c-3.574,0 -5.867,4.234 -3.306,6.107c5.264,3.849 12.277,4.987 16.115,2.615c5.906,-3.65 27.325,-6.263 42.197,-5.148c8.193,0.614 9.571,1.115 9.142,3.322c-0.272,1.4 -1.036,1.485 -11.078,1.222c-16.613,-0.433 -39.336,2.163 -34.587,3.952c4.613,1.738 1.07,5.266 -4.279,4.262c-2.932,-0.55 -2.946,-0.539 -2.371,1.753c1.098,4.374 6.108,7.465 12.152,7.497c3.527,0.019 5.595,1.569 4.813,3.608c-1.965,5.12 -21.031,-3.222 -21.433,-9.378c-0.066,-0.997 -0.156,-2.485 -0.2,-3.307c-0.061,-1.114 -1.507,-1.977 -5.663,-3.379c-8.597,-2.902 -9.613,-3.935 -9.65,-9.821l-0.031,-4.905l-3.522,-1.8c-4.605,-2.353 -6.748,-5.352 -6.661,-9.319c0.063,-2.895 -0.164,-3.222 -3.179,-4.582c-4.737,-2.136 -12.576,-9.843 -12.576,-12.363c0,-4.734 5.356,-12.318 11.967,-16.944c1.539,-1.077 1.757,-1.588 1,-2.345c-2.975,-2.975 0.806,-13.169 6.03,-16.254c1.813,-1.071 2.261,-1.823 1.975,-3.316c-1.057,-5.532 3.376,-10.773 12.395,-14.653c3.189,-1.372 4.153,-2.222 4.503,-3.973c1.044,-5.22 9.342,-10.66 18.46,-12.101c5.095,-0.805 38.289,-0.314 42.07,0.622m-24.145,119.227c0.446,3.133 -7.141,4.189 -9.519,1.324c-1.96,-2.362 -0.223,-3.617 4.654,-3.363c4.084,0.213 4.639,0.445 4.865,2.039m95.947,38.133c-5.293,2.945 -3.656,4.723 2.032,2.208c2.618,-1.159 2.892,-1.515 2,-2.609c-0.936,-1.146 -1.319,-1.108 -4.032,0.401m-191.192,1.72c-6.442,3.496 -6.335,16.574 0.164,19.934c3.056,1.581 6.403,1.541 8.751,-0.103c1.746,-1.223 1.933,-1.223 2.617,0c1.887,3.371 3.058,1.424 3.058,-5.083l0,-6.4l-4.8,0c-5.496,0 -7.819,4.339 -2.648,4.947c2.052,0.241 2.086,0.317 0.742,1.653c-3.739,3.716 -7.918,-3.65 -5.105,-9c1.36,-2.588 4.286,-3.084 4.996,-0.847c0.561,1.768 3.821,2.251 5.978,0.887c1.009,-0.638 1.012,-1.017 0.028,-2.856c-2.21,-4.131 -9.068,-5.689 -13.781,-3.132m18.59,9.948l0,11.297l3,-0.249l3,-0.248l0,-10.8l0,-10.8l-3,-0.248l-3,-0.249l0,11.297m29.6,-0.048c0,11.674 0.652,13.476 3.754,10.374c0.632,-0.632 1.326,-0.632 2.508,0c6.184,3.31 11.877,-3.184 9.742,-11.112c-1.005,-3.731 -3.159,-5.161 -6.869,-4.558c-2.561,0.415 -2.653,0.335 -2.89,-2.514c-0.231,-2.771 -0.42,-2.956 -3.245,-3.19l-3,-0.249l0,11.249m38.916,-10.539c-0.208,0.336 -0.32,5.286 -0.247,11l0.131,10.387l3,0.248l3,0.249l0,-11.249l0,-11.248l-2.753,0c-1.514,0 -2.923,0.276 -3.131,0.613m20.705,2.006c-4.528,4.528 -4.511,13.163 0.034,17.433c4.508,4.235 15.545,1.129 15.545,-4.374c0,-2.135 -5.038,-2.136 -6.667,-0.001c-2.852,3.739 -5.333,1.565 -5.333,-4.672c0,-5.709 4.109,-8.618 5.369,-3.801c0.522,1.997 6.631,2.396 6.631,0.434c0,-7.052 -10.246,-10.352 -15.579,-5.019m55.579,8.629l0,11.249l3,-0.249l3,-0.248l0.4,-6c0.584,-8.763 2.703,-8.591 3.034,0.246l0.235,6.246l2.965,-0.246l2.966,-0.246l0.235,-6.287c0.329,-8.781 -4.083,-13.545 -8.475,-9.153c-0.747,0.747 -0.96,0.124 -0.96,-2.8l0,-3.76l-3.2,0l-3.2,0l0,11.248m-133.18,-3.028c-7.295,7.295 1.452,17.804 10.796,12.972c2.962,-1.532 3.984,-3.455 3.984,-7.495c0,-7.617 -9.223,-11.034 -14.78,-5.477m39.288,-0.962c-1.159,0.912 -2.108,1.963 -2.108,2.336c0,1.12 4.867,1.859 5.839,0.887c1.204,-1.204 3.974,-1.121 3.565,0.108c-0.181,0.543 -1.921,1.256 -3.867,1.583c-5.704,0.958 -8.08,5.285 -4.737,8.628c1.786,1.786 4.831,2.068 7.414,0.685c1.283,-0.686 1.786,-0.686 2.014,0c0.168,0.503 1.535,0.915 3.039,0.915l2.733,0l-0.012,-6.6c-0.007,-3.63 -0.277,-6.996 -0.6,-7.48c-2.059,-3.083 -9.912,-3.711 -13.28,-1.062m58.236,0.242c-1.975,1.745 -2.155,2.198 -1.144,2.873c1.552,1.038 4.566,1.053 5.2,0.027c0.72,-1.165 3.798,-0.995 3.404,0.189c-0.181,0.543 -1.921,1.256 -3.867,1.583c-5.704,0.958 -8.08,5.285 -4.737,8.628c1.786,1.786 4.831,2.068 7.414,0.685c1.283,-0.686 1.786,-0.686 2.014,0c0.168,0.503 1.535,0.915 3.039,0.915l2.733,0l0,-6.647c0,-8.556 -0.676,-9.526 -6.948,-9.98c-4.249,-0.307 -5.017,-0.121 -7.108,1.727m19.594,0.438c-5.223,5.224 -1.82,14.462 5.327,14.462c3.689,0 5.632,-1.094 7.147,-4.024l1.229,-2.376l-2.723,0c-1.497,0 -3.152,0.519 -3.679,1.152c-1.702,2.052 -3.239,0.539 -3.239,-3.19c0,-3.815 1.305,-5.341 2.81,-3.284c1.267,1.733 5.99,1.8 5.99,0.086c0,-4.988 -8.772,-6.915 -12.862,-2.826m37.625,-0.138c-6.064,5.419 -2.357,14.6 5.896,14.6c3.518,0 8.541,-2.865 8.541,-4.871c0,-1.05 -5.909,-0.9 -6.986,0.177c-1.162,1.162 -3.414,0.317 -3.414,-1.281c0,-0.974 1.064,-1.225 5.2,-1.225c4.709,0 5.2,-0.155 5.2,-1.64c0,-7.025 -9.002,-10.617 -14.437,-5.76m7.863,3.841c-0.264,0.264 -1.481,0.362 -2.704,0.219c-2.156,-0.252 -2.179,-0.305 -0.759,-1.717c1.323,-1.315 1.586,-1.337 2.704,-0.219c0.681,0.681 1.022,1.454 0.759,1.717m-154.712,-0.776c0.704,1.835 0.574,5.357 -0.246,6.652c-0.998,1.576 -2.969,0.583 -3.566,-1.797c-1.002,-3.991 2.455,-8.392 3.812,-4.855m20.123,1.451c0.569,3.035 -0.666,6.084 -2.465,6.084c-0.887,0 -1.172,-1.069 -1.172,-4.4c0,-5.396 2.706,-6.649 3.637,-1.684m18.763,3.709c0,1.957 -2.136,2.964 -3.454,1.627c-0.73,-0.74 -0.591,-1.222 0.607,-2.106c2.118,-1.563 2.847,-1.44 2.847,0.479m58.4,0c0,1.848 -2.106,2.989 -3.305,1.79c-0.53,-0.53 -0.359,-1.237 0.511,-2.106c1.764,-1.765 2.794,-1.648 2.794,0.316" id="path0"/>
  </g>
 </g>
</svg>